<svg xmlns="http://www.w3.org/2000/svg" xmlns:xlink="http://www.w3.org/1999/xlink" viewBox="0 0 890 440"><defs><style>.cls-1{isolation:isolate;}.cls-2{fill:#1f9cf5;opacity:0.2;}.cls-3{opacity:0.15;fill:url(#linear-gradient);}.cls-10,.cls-14,.cls-26,.cls-28,.cls-4,.cls-9{fill:#fff;}.cls-4{opacity:0.7;}.cls-14,.cls-5{opacity:0.76;}.cls-6{fill:url(#linear-gradient-2);}.cls-7{fill:#222669;}.cls-8{fill:url(#linear-gradient-3);}.cls-9{opacity:0.45;}.cls-10{opacity:0.5;}.cls-11{fill:url(#New_Gradient_Swatch_copy);}.cls-12{fill:#1a305c;}.cls-13{fill:#2234a4;}.cls-15{fill:url(#New_Gradient_Swatch_copy-2);}.cls-16{fill:url(#New_Gradient_Swatch_copy-3);}.cls-17{fill:url(#New_Gradient_Swatch_copy-4);}.cls-18{fill:url(#New_Gradient_Swatch_copy-5);}.cls-19{fill:url(#New_Gradient_Swatch_copy-6);}.cls-20{fill:url(#New_Gradient_Swatch_copy-7);}.cls-21{fill:url(#New_Gradient_Swatch_copy-8);}.cls-22{fill:#2d589b;}.cls-23{fill:url(#linear-gradient-4);}.cls-24{fill:#4485e2;}.cls-25,.cls-31{fill:#9faffc;}.cls-27{fill:url(#linear-gradient-5);}.cls-28,.cls-31{opacity:0.6;}.cls-29{fill:#e6f6ff;}.cls-30{fill:#fd5d61;}.cls-31{mix-blend-mode:multiply;}.cls-32{fill:#5c1a4a;}.cls-33{fill:url(#linear-gradient-6);}.cls-34{fill:url(#linear-gradient-7);}.cls-35{fill:url(#linear-gradient-8);}.cls-36{fill:url(#linear-gradient-9);}.cls-37{fill:url(#linear-gradient-10);}.cls-38{fill:url(#linear-gradient-11);}.cls-39{fill:url(#linear-gradient-12);}.cls-40{fill:url(#linear-gradient-13);}.cls-41{fill:url(#linear-gradient-14);}.cls-42{fill:url(#linear-gradient-15);}.cls-43{fill:url(#linear-gradient-16);}.cls-44{fill:url(#linear-gradient-17);}.cls-45{fill:url(#linear-gradient-18);}.cls-46{fill:url(#linear-gradient-19);}.cls-47{fill:#f5841f;}.cls-48{fill:url(#linear-gradient-20);}.cls-49{fill:url(#linear-gradient-21);}.cls-50{fill:url(#linear-gradient-22);}.cls-51{fill:url(#linear-gradient-23);}.cls-52{fill:url(#New_Gradient_Swatch);}.cls-53{fill:url(#New_Gradient_Swatch-2);}.cls-54{fill:url(#linear-gradient-24);}.cls-55{fill:url(#linear-gradient-25);}.cls-56{fill:url(#linear-gradient-26);}.cls-57{fill:url(#linear-gradient-27);}.cls-58{fill:url(#linear-gradient-28);}.cls-59{fill:url(#linear-gradient-29);}.cls-60{fill:url(#linear-gradient-30);}.cls-61{fill:url(#linear-gradient-31);}.cls-62{fill:url(#linear-gradient-32);}.cls-63{fill:url(#linear-gradient-33);}.cls-64{fill:url(#linear-gradient-34);}.cls-65{fill:url(#linear-gradient-35);}.cls-66{fill:url(#linear-gradient-36);}.cls-67{fill:url(#linear-gradient-37);}.cls-68{fill:url(#linear-gradient-38);}.cls-69{fill:url(#linear-gradient-39);}.cls-70{fill:url(#linear-gradient-40);}.cls-71{fill:url(#linear-gradient-41);}.cls-72{fill:url(#linear-gradient-42);}.cls-73{fill:url(#linear-gradient-43);}.cls-74{fill:url(#linear-gradient-44);}.cls-75{fill:url(#linear-gradient-45);}.cls-76{fill:url(#linear-gradient-46);}.cls-77{fill:url(#linear-gradient-47);}.cls-78{fill:url(#linear-gradient-48);}</style><linearGradient id="linear-gradient" x1="214.47" y1="214.62" x2="1067.19" y2="214.62" gradientTransform="matrix(-1, 0, 0, 1, 1072.65, 0)" gradientUnits="userSpaceOnUse"><stop offset="0" stop-color="#b37cff"/><stop offset="1" stop-color="#f895e7"/></linearGradient><linearGradient id="linear-gradient-2" x1="-470.94" y1="307.47" x2="-512.08" y2="412.68" gradientTransform="matrix(-1, 0.09, 0.09, 1, -500.14, -68.8)" gradientUnits="userSpaceOnUse"><stop offset="0" stop-color="#18459f"/><stop offset="1" stop-color="#2874b5"/></linearGradient><linearGradient id="linear-gradient-3" x1="5536.28" y1="5952.56" x2="5574.52" y2="5952.56" gradientTransform="matrix(-0.63, 0.78, 0.62, 0.5, -192.67, -6961.53)" gradientUnits="userSpaceOnUse"><stop offset="0" stop-color="#2b3582"/><stop offset="1" stop-color="#150e42"/></linearGradient><linearGradient id="New_Gradient_Swatch_copy" x1="520.77" y1="389.6" x2="520.77" y2="208.06" gradientTransform="matrix(1, 0, 0, 1, 0, 0)" xlink:href="#linear-gradient-2"/><linearGradient id="New_Gradient_Swatch_copy-2" x1="654.07" y1="54.24" x2="507.75" y2="337.73" gradientTransform="matrix(-1, 0, 0, 1, 1244, 0)" xlink:href="#linear-gradient-2"/><linearGradient id="New_Gradient_Swatch_copy-3" x1="433.43" y1="408.98" x2="486.08" y2="-241.22" gradientTransform="matrix(1, 0, 0, -1, 338.69, 343.15)" xlink:href="#linear-gradient-2"/><linearGradient id="New_Gradient_Swatch_copy-4" x1="474.85" y1="412.33" x2="527.5" y2="-237.87" gradientTransform="matrix(1, 0, 0, -1, 255.31, 343.15)" xlink:href="#linear-gradient-2"/><linearGradient id="New_Gradient_Swatch_copy-5" x1="516.28" y1="415.69" x2="568.92" y2="-234.52" gradientTransform="matrix(1, 0, 0, -1, 171.92, 343.15)" xlink:href="#linear-gradient-2"/><linearGradient id="New_Gradient_Swatch_copy-6" x1="557.7" y1="419.04" x2="610.34" y2="-231.16" gradientTransform="matrix(1, 0, 0, -1, 88.53, 343.15)" xlink:href="#linear-gradient-2"/><linearGradient id="New_Gradient_Swatch_copy-7" x1="599.12" y1="422.39" x2="651.77" y2="-227.81" gradientTransform="matrix(1, 0, 0, -1, 5.14, 343.15)" xlink:href="#linear-gradient-2"/><linearGradient id="New_Gradient_Swatch_copy-8" x1="640.55" y1="425.75" x2="693.19" y2="-224.45" gradientTransform="matrix(1, 0, 0, -1, -78.25, 343.15)" xlink:href="#linear-gradient-2"/><linearGradient id="linear-gradient-4" x1="466.2" y1="407.36" x2="467.27" y2="211.25" gradientTransform="matrix(1, 0, 0, -1, 310.9, 686.26)" gradientUnits="userSpaceOnUse"><stop offset="0" stop-color="#53d8ff"/><stop offset="1" stop-color="#3840f7"/></linearGradient><linearGradient id="linear-gradient-5" x1="6107.91" y1="349.63" x2="6105.65" y2="441.26" gradientTransform="matrix(-1, 0, 0, 1, 6252.75, 0)" xlink:href="#linear-gradient-3"/><linearGradient id="linear-gradient-6" x1="-221.35" y1="289.69" x2="-216.61" y2="33.52" gradientTransform="matrix(-1, 0, 0, 1, 229.65, 0)" gradientUnits="userSpaceOnUse"><stop offset="0" stop-color="#c32b78"/><stop offset="1" stop-color="#593092"/></linearGradient><linearGradient id="linear-gradient-7" x1="-224.75" y1="288.27" x2="-131.9" y2="230.14" gradientTransform="matrix(-1, 0, 0, 1, 229.65, 0)" xlink:href="#linear-gradient-3"/><linearGradient id="linear-gradient-8" x1="-224.75" y1="308.22" x2="-131.9" y2="250.1" gradientTransform="matrix(-1, 0, 0, 1, 229.65, 0)" xlink:href="#linear-gradient-3"/><linearGradient id="linear-gradient-9" x1="-214.11" y1="341.18" x2="-211.48" y2="198.64" gradientTransform="matrix(-1, 0, 0, 1, 229.65, 0)" xlink:href="#linear-gradient-3"/><linearGradient id="linear-gradient-10" x1="2486.38" y1="341.18" x2="2489.02" y2="198.65" gradientTransform="translate(-2108.35)" xlink:href="#linear-gradient-3"/><linearGradient id="linear-gradient-11" x1="-411.77" y1="235.72" x2="-292.52" y2="235.23" xlink:href="#linear-gradient-6"/><linearGradient id="linear-gradient-12" x1="1397.87" y1="310.88" x2="1432.77" y2="310.88" gradientTransform="matrix(-1, 0, 0, 1, 1742.42, 0)" gradientUnits="userSpaceOnUse"><stop offset="0" stop-color="#cb236d"/><stop offset="1" stop-color="#4c246d"/></linearGradient><linearGradient id="linear-gradient-13" x1="1424.76" y1="243.76" x2="1415.22" y2="309.65" gradientTransform="matrix(-1, 0, 0, 1, 1742.42, 0)" xlink:href="#linear-gradient-3"/><linearGradient id="linear-gradient-14" x1="1399.61" y1="300.36" x2="1409.06" y2="300.36" gradientTransform="matrix(-1, 0, 0, 1, 1742.42, 0)" gradientUnits="userSpaceOnUse"><stop offset="0" stop-color="#c4421b"/><stop offset="1" stop-color="#5c0e16"/></linearGradient><linearGradient id="linear-gradient-15" x1="1452.61" y1="303.96" x2="1480.79" y2="303.96" xlink:href="#linear-gradient-12"/><linearGradient id="linear-gradient-16" x1="1471.99" y1="250.6" x2="1462.46" y2="316.49" gradientTransform="matrix(-1, 0, 0, 1, 1742.42, 0)" xlink:href="#linear-gradient-3"/><linearGradient id="linear-gradient-17" x1="1347.4" y1="257.75" x2="1422.15" y2="257.75" gradientTransform="matrix(-1, 0, 0, 1, 1742.42, 0)" xlink:href="#linear-gradient-3"/><linearGradient id="linear-gradient-18" x1="1444.34" y1="301.15" x2="1455.62" y2="301.15" xlink:href="#linear-gradient-14"/><linearGradient id="linear-gradient-19" x1="289.84" y1="257.86" x2="417.62" y2="257.86" gradientTransform="matrix(1, 0, 0, 1, 0, 0)" xlink:href="#linear-gradient-3"/><linearGradient id="linear-gradient-20" x1="1359.57" y1="136.97" x2="1359.57" y2="106" xlink:href="#linear-gradient-14"/><linearGradient id="linear-gradient-21" x1="313.67" y1="1916.32" x2="284.92" y2="1954.36" gradientTransform="matrix(-0.94, -0.35, -0.35, 0.94, 1327.67, -1590.08)" gradientUnits="userSpaceOnUse"><stop offset="0" stop-color="#c4421b"/><stop offset="1" stop-color="#852218"/></linearGradient><linearGradient id="linear-gradient-22" x1="291.71" y1="1925.49" x2="326.06" y2="1925.49" gradientTransform="matrix(-0.94, -0.35, -0.35, 0.94, 1327.67, -1590.08)" xlink:href="#linear-gradient-3"/><linearGradient id="linear-gradient-23" x1="271.56" y1="1946.44" x2="294.62" y2="1922.78" xlink:href="#linear-gradient-21"/><linearGradient id="New_Gradient_Swatch" x1="374.7" y1="168.18" x2="383.75" y2="168.18" gradientUnits="userSpaceOnUse"><stop offset="0" stop-color="#a737d5"/><stop offset="1" stop-color="#ef497a"/></linearGradient><linearGradient id="New_Gradient_Swatch-2" x1="384.8" y1="177.99" x2="404.84" y2="177.99" xlink:href="#New_Gradient_Swatch"/><linearGradient id="linear-gradient-24" x1="807.4" y1="102.95" x2="777.55" y2="151.39" gradientTransform="matrix(-0.96, 0.3, 0.3, 0.96, 1074.02, -152.26)" xlink:href="#linear-gradient-14"/><linearGradient id="linear-gradient-25" x1="-959.47" y1="329.14" x2="-1010.62" y2="459.93" gradientTransform="translate(1868.39 -68.8) rotate(4.93)" gradientUnits="userSpaceOnUse"><stop offset="0" stop-color="#009f4e"/><stop offset="1" stop-color="#0a5748"/></linearGradient><linearGradient id="linear-gradient-26" x1="5223.95" y1="6458.04" x2="5271.49" y2="6458.04" gradientTransform="matrix(0.39, 0.92, -0.74, 0.31, 3553.99, -6457.15)" xlink:href="#linear-gradient-25"/><linearGradient id="linear-gradient-27" x1="38.06" y1="68.74" x2="61.95" y2="95.22" gradientTransform="matrix(-1, 0, 0, 1, 229.65, 0)" xlink:href="#linear-gradient-3"/><linearGradient id="linear-gradient-28" x1="69" y1="270.3" x2="72.93" y2="58.29" xlink:href="#linear-gradient-6"/><linearGradient id="linear-gradient-29" x1="26.66" y1="171.28" x2="55.84" y2="171.28" gradientTransform="matrix(-1, 0, 0, 1, 229.65, 0)" gradientUnits="userSpaceOnUse"><stop offset="0" stop-color="#f9b776"/><stop offset="1" stop-color="#f47960"/></linearGradient><linearGradient id="linear-gradient-30" x1="30.17" y1="287.65" x2="123.02" y2="229.52" gradientTransform="matrix(-1, 0, 0, 1, 229.65, 0)" xlink:href="#linear-gradient-3"/><linearGradient id="linear-gradient-31" x1="40.81" y1="330.28" x2="43.45" y2="187.74" gradientTransform="matrix(-1, 0, 0, 1, 229.65, 0)" xlink:href="#linear-gradient-3"/><linearGradient id="linear-gradient-32" x1="2231.46" y1="330.28" x2="2234.1" y2="187.75" gradientTransform="translate(-2108.35)" xlink:href="#linear-gradient-3"/><linearGradient id="linear-gradient-33" x1="-156.85" y1="224.82" x2="-37.59" y2="224.33" xlink:href="#linear-gradient-6"/><linearGradient id="linear-gradient-34" x1="7319.91" y1="-10.37" x2="7251.73" y2="28.55" gradientTransform="translate(-6430.16 -2700.97) rotate(23.72)" xlink:href="#linear-gradient-29"/><linearGradient id="linear-gradient-35" x1="869.69" y1="-1469.61" x2="864.33" y2="-1387.35" gradientTransform="matrix(-0.64, -0.77, -0.77, 0.64, -312.1, 1878.96)" xlink:href="#linear-gradient-12"/><linearGradient id="linear-gradient-36" x1="7687.67" y1="7.04" x2="7926.77" y2="-142.65" gradientTransform="translate(-7126.04 -1891.37) rotate(15.95)" xlink:href="#linear-gradient-29"/><linearGradient id="linear-gradient-37" x1="983.91" y1="-2246.3" x2="978.54" y2="-2164.05" gradientTransform="matrix(-0.59, -0.81, -0.81, 0.59, -995.76, 2392.3)" xlink:href="#linear-gradient-12"/><linearGradient id="linear-gradient-38" x1="72.7" y1="167.31" x2="10.64" y2="279.49" gradientTransform="matrix(-1, 0, 0, 1, 229.65, 0)" gradientUnits="userSpaceOnUse"><stop offset="0" stop-color="#50e7b7"/><stop offset="1" stop-color="#323992"/></linearGradient><linearGradient id="linear-gradient-39" x1="8386.26" y1="125.74" x2="8221.52" y2="284.65" gradientTransform="translate(-8189.68)" gradientUnits="userSpaceOnUse"><stop offset="0" stop-color="#fdf53f"/><stop offset="1" stop-color="#d93c65"/></linearGradient><linearGradient id="linear-gradient-40" x1="-835.16" y1="140.08" x2="-839.91" y2="109.61" gradientTransform="matrix(-1, 0, 0, 1, -659.22, 0)" xlink:href="#linear-gradient-29"/><linearGradient id="linear-gradient-41" x1="417.22" y1="-3086.89" x2="447.9" y2="-3066.05" gradientTransform="matrix(-0.72, -0.69, -0.69, 0.72, -1630.32, 2627.36)" xlink:href="#linear-gradient-29"/><linearGradient id="linear-gradient-42" x1="85.7" y1="47.31" x2="-40.03" y2="186.71" gradientTransform="matrix(-1, 0, 0, 1, 229.65, 0)" xlink:href="#linear-gradient-3"/><linearGradient id="linear-gradient-43" x1="419.06" y1="-3089.6" x2="449.74" y2="-3068.76" gradientTransform="matrix(-0.72, -0.69, -0.69, 0.72, -1630.32, 2627.36)" xlink:href="#linear-gradient-29"/><linearGradient id="linear-gradient-44" x1="-813.24" y1="178.92" x2="-743.63" y2="178.92" gradientTransform="matrix(-1, 0, 0, 1, -659.22, 0)" xlink:href="#linear-gradient-29"/><linearGradient id="linear-gradient-45" x1="7.49" y1="166.42" x2="44.96" y2="166.42" gradientTransform="matrix(-1, 0, 0, 1, 229.65, 0)" xlink:href="#linear-gradient-3"/><linearGradient id="linear-gradient-46" x1="10.26" y1="146.96" x2="21.11" y2="146.96" gradientTransform="matrix(-1, 0, 0, 1, 229.65, 0)" xlink:href="#linear-gradient-4"/><linearGradient id="linear-gradient-47" x1="10.89" y1="168.11" x2="17.41" y2="168.11" xlink:href="#linear-gradient-29"/><linearGradient id="linear-gradient-48" x1="43.72" y1="170.49" x2="48.38" y2="170.49" gradientTransform="matrix(-1, 0, 0, 1, 229.65, 0)" xlink:href="#linear-gradient-3"/></defs><g class="cls-1"><g id="Layer_2" data-name="Layer 2"><g id="Layer_1-2" data-name="Layer 1"><path class="cls-2" d="M239.82,43.59c-65.2,42.85-18.88,58.61-64,82.62S-56.34,197.05,132,290s193.47,154.46,327.89,95.64S584.61,316.19,695.23,356s226.24-22.1,186.93-95.53S817.82,187.92,862.7,141,837.4-35.63,682.88,64.65,342.84-24.13,239.82,43.59Z"/><path class="cls-3" d="M636.05,35.39C686.14,78.06,860,30.65,858.16,109.32c-2.14,92.11-173,119.21-117.67,184S734.72,430.58,512.4,429.21s-580-82.61-493.81-170.86,28.76-92.78,24.55-131.78S71.53-34.72,243.71,36.62,509.19-72.66,636.05,35.39Z"/><path class="cls-4" d="M152.75,86.47c2.22-10.87-7-27.49-27.84-15.86,0-5.26-22.81-24-37.57,8.82-1.1-8.45-19.25-6.18-23.86,7.43-6.31-4.15-24.1,11.45-3.18,16.67,26.71,6.67,88.9,12.12,102-5.59S152.75,86.47,152.75,86.47Z"/><g class="cls-5"><path class="cls-6" d="M21.91,197.67a1.55,1.55,0,0,1,3-.1c4.21,14.93,16.5,53.74,35.33,74.32,30.67,33.5,51.13,87.95,31.57,116.2C91.81,388.09-14.65,368.69,21.91,197.67Z"/><path class="cls-7" d="M25.48,219s0,.16.07.47.13.74.24,1.32c.21,1.19.57,2.91,1,5.11s1,4.87,1.74,7.92S30.09,240.26,31,244s2,7.78,3.13,12,2.46,8.72,3.81,13.34,2.84,9.37,4.43,14.16l1.2,3.61c.41,1.2.83,2.41,1.25,3.61.82,2.42,1.72,4.83,2.59,7.24s1.82,4.79,2.71,7.19,1.87,4.74,2.8,7.09,1.91,4.65,2.91,6.91,2,4.52,3,6.69c2,4.36,4.06,8.53,6.06,12.46s4,7.56,5.93,10.9c1,1.65,1.93,3.23,2.82,4.74s1.83,2.89,2.66,4.21l1.22,1.91,1.19,1.74,2.1,3.06c1.31,1.83,2.38,3.23,3.09,4.2L85,370.59h0a.32.32,0,0,1-.07.44.31.31,0,0,1-.43-.06l-1.16-1.44c-.75-1-1.9-2.3-3.26-4.1-.67-.91-1.4-1.92-2.21-3l-1.25-1.72c-.42-.6-.84-1.23-1.29-1.88-.87-1.3-1.84-2.67-2.79-4.16s-1.91-3.07-2.94-4.71c-2-3.32-4.08-6.94-6.17-10.86s-4.18-8.09-6.23-12.46c-1.06-2.18-2-4.44-3-6.71s-2-4.6-3-6.93l-2.86-7.11c-.91-2.4-1.84-4.81-2.7-7.23s-1.75-4.85-2.57-7.29l-1.23-3.63c-.4-1.22-.79-2.43-1.18-3.63-1.58-4.82-3-9.6-4.37-14.24s-2.54-9.15-3.63-13.44-2.06-8.35-2.94-12.11C28,236.78,26.76,230.46,26,226c-.39-2.22-.67-4-.85-5.16-.09-.61-.16-1.08-.2-1.39l0-.47a.32.32,0,0,1,.28-.35.32.32,0,0,1,.35.27Z"/></g><g class="cls-5"><path class="cls-8" d="M80.15,389.33s-.17-17-16.72-30.64C48.08,346,10.31,317.15,1.74,298.53c-.38-.83-1.7-.28-1.72.72-.22,10.67,1.28,37,18.93,59.66C41.71,388.16,80.15,389.33,80.15,389.33Z"/><path class="cls-9" d="M7.64,316.28s.07.39.25,1.1.47,1.75.91,3.05c.21.65.48,1.36.78,2.12s.65,1.59,1,2.46.85,1.77,1.29,2.74,1,1.92,1.58,2.95,1.24,2,1.89,3.1,1.42,2.12,2.2,3.2l1.24,1.61c.42.53.8,1.11,1.27,1.63.92,1.05,1.8,2.18,2.8,3.23s2,2.14,3.08,3.18,2.18,2.07,3.31,3.09l3.55,2.95c1.2,1,2.46,1.92,3.69,2.89,2.49,1.92,5,3.77,7.48,5.61s5,3.6,7.35,5.3l6.93,4.91c2.21,1.57,4.28,3.07,6.18,4.49s3.58,2.81,5,4.07c.74.62,1.39,1.26,2,1.82s1.13,1.16,1.62,1.65a24.64,24.64,0,0,1,2,2.54l.66.95a.32.32,0,0,1-.08.44.34.34,0,0,1-.43-.06l0,0-.71-.86a28.8,28.8,0,0,0-2.15-2.29c-.51-.45-1.06-1-1.67-1.5s-1.32-1.09-2.08-1.66c-1.51-1.15-3.26-2.38-5.21-3.7s-4.08-2.72-6.32-4.21L50,368.35c-2.44-1.67-4.95-3.41-7.48-5.21s-5.05-3.71-7.56-5.63c-1.24-1-2.48-1.91-3.72-2.9l-3.61-3.08c-1.15-1.07-2.26-2.17-3.37-3.23s-2.07-2.26-3.08-3.36-1.87-2.31-2.77-3.42-1.65-2.33-2.44-3.44-1.42-2.3-2.1-3.4-1.2-2.23-1.75-3.29-1-2.12-1.41-3.12-.8-2-1.1-2.88a42.35,42.35,0,0,1-1.39-4.81,29.43,29.43,0,0,1-.58-3.16c-.09-.74-.12-1.13-.12-1.13a0,0,0,0,1,0,0S7.64,316.26,7.64,316.28Z"/></g><path class="cls-10" d="M844.24,96.46c41.5-7,15.46-43.24-17.81-28.59-1-2.08,0-4.6-.44-6.87-5.24-9.36-17.1-15-27-18.19-9.2-2.24-26.11-1.05-28.15,9.93,1.74,3.76,5.25,6.57,7.7,9.9A49.74,49.74,0,0,0,734,56c-5.64,1.29-12.39,7.72-7.79,13.33-16.59-.62-36.53-4.09-49.9,7-4.52,3.08-4.83,9.56.74,11.59,15.21,2.22,29.5,7.62,44,12.8,41.19,10.19,82.54,7.75,123.18-4.26"/><path class="cls-11" d="M572,208.06h-106l7.46,173.28a8.63,8.63,0,0,0,8.62,8.26h93.36Z"/><polygon class="cls-10" points="573.22 270.6 468.74 270.6 466.79 225.43 572.35 225.43 573.22 270.6"/><path class="cls-12" d="M467.63,208.87H582.5v-13H469.41a3.18,3.18,0,0,0-3.07,2.36l-1.78,6.67A3.18,3.18,0,0,0,467.63,208.87Z"/><rect class="cls-13" x="548.57" y="225.43" width="4.34" height="45.17" transform="translate(1101.48 496.03) rotate(-180)"/><rect class="cls-13" x="515.56" y="225.43" width="4.34" height="45.17" transform="translate(1035.46 496.03) rotate(-180)"/><polygon class="cls-13" points="487.76 270.6 492.11 270.6 489.5 225.43 485.16 225.43 487.76 270.6"/><rect class="cls-14" x="534.67" y="290.58" width="15.64" height="44.3" rx="1.18" transform="translate(1084.97 625.45) rotate(-180)"/><rect class="cls-14" x="497.32" y="290.58" width="15.64" height="44.3" rx="1.18" transform="translate(1010.27 625.45) rotate(-180)"/><polygon class="cls-15" points="824.79 132.49 810.26 389.6 568.54 389.6 558.12 132.49 824.79 132.49"/><path class="cls-12" d="M828.73,135l1.82-4.78a3,3,0,0,0-2.84-3.85H556.38a3,3,0,0,0-2.94,3.43l.82,5.33Z"/><polygon class="cls-14" points="560.45 189.81 558.97 153.33 823.61 153.33 821.55 189.81 560.45 189.81"/><rect class="cls-16" x="788.31" y="153.33" width="6.08" height="36.48" transform="translate(1582.7 343.15) rotate(-180)"/><rect class="cls-17" x="746.61" y="153.33" width="6.08" height="36.48" transform="translate(1499.31 343.15) rotate(-180)"/><rect class="cls-18" x="704.92" y="153.33" width="6.08" height="36.48" transform="translate(1415.92 343.15) rotate(-180)"/><rect class="cls-19" x="663.23" y="153.33" width="6.08" height="36.48" transform="translate(1332.53 343.15) rotate(-180)"/><rect class="cls-20" x="621.53" y="153.33" width="6.08" height="36.48" transform="translate(1249.14 343.15) rotate(-180)"/><rect class="cls-21" x="579.84" y="153.33" width="6.08" height="36.48" transform="translate(1165.75 343.15) rotate(-180)"/><rect class="cls-13" x="729.2" y="204.58" width="62.59" height="26.93" transform="translate(1520.98 436.09) rotate(-180)"/><rect class="cls-14" x="731.51" y="207.19" width="57.95" height="22.58" transform="translate(1520.98 436.96) rotate(-180)"/><rect class="cls-13" x="660.81" y="204.58" width="62.59" height="26.93" transform="translate(1384.21 436.09) rotate(-180)"/><rect class="cls-14" x="663.13" y="207.19" width="57.95" height="22.58" transform="translate(1384.21 436.96) rotate(-180)"/><rect class="cls-13" x="592.43" y="204.58" width="62.59" height="26.93" transform="translate(1247.45 436.09) rotate(-180)"/><rect class="cls-14" x="594.75" y="207.19" width="57.95" height="22.58" transform="translate(1247.45 436.96) rotate(-180)"/><rect class="cls-22" x="660.62" y="294.05" width="118.13" height="101.63" transform="translate(1439.37 689.73) rotate(-180)"/><path class="cls-23" d="M772.84,290.58h15.47a0,0,0,0,1,0,0v105.1a0,0,0,0,1,0,0H766.59a0,0,0,0,1,0,0V296.82a6.25,6.25,0,0,1,6.25-6.25Z" transform="translate(1554.9 686.26) rotate(-180)"/><rect class="cls-12" x="681.47" y="325.32" width="76.44" height="70.36" transform="translate(1439.37 721) rotate(-180)"/><path class="cls-24" d="M797.5,248.92l-3.11,53H672.78v93.81H593.57a8,8,0,0,1-8-7.64l-5.54-136.76a5.71,5.71,0,0,1,5.64-5.94l206-2.47A5.71,5.71,0,0,1,797.5,248.92Z"/><polygon class="cls-14" points="795.41 284.5 660.62 284.5 660.62 264.52 796.59 264.52 795.41 284.5"/><rect class="cls-13" x="770.07" y="264.52" width="5.21" height="19.98" transform="translate(1545.35 549.01) rotate(-180)"/><rect class="cls-13" x="746.61" y="264.52" width="5.21" height="19.98" transform="translate(1498.44 549.01) rotate(-180)"/><rect class="cls-13" x="723.16" y="264.52" width="5.21" height="19.98" transform="translate(1451.53 549.01) rotate(-180)"/><rect class="cls-13" x="699.71" y="264.52" width="5.21" height="19.98" transform="translate(1404.63 549.01) rotate(-180)"/><rect class="cls-13" x="676.25" y="264.52" width="5.21" height="19.98" transform="translate(1357.72 549.01) rotate(-180)"/><path class="cls-25" d="M95.62,329.19H247.8V305.85H95.62C98.88,305.85,98.88,329.19,95.62,329.19Z"/><path class="cls-13" d="M247.8,323.35V312.67a6.76,6.76,0,0,0-6.71-6.82H96.26c-2.91,0-5.28-1.81-5.28-4.05h0a1.46,1.46,0,0,1,1.61-1.23H250.87c3.63,0,9.39,4.37,9.39,9.77v14.92c0,5.08-5.6,9.21-9,9.21H93.42A2.21,2.21,0,0,1,91,332.6h0c0-1.89,2-3.41,4.45-3.41H242.05A5.8,5.8,0,0,0,247.8,323.35Z"/><path class="cls-26" d="M243.58,311.36H100.89a.72.72,0,0,1-.72-.72.73.73,0,0,1,.72-.73H243.58a.73.73,0,0,1,.73.73A.73.73,0,0,1,243.58,311.36Z"/><path class="cls-26" d="M243.58,314.82H100.89a.72.72,0,1,1,0-1.44H243.58a.72.72,0,1,1,0,1.44Z"/><path class="cls-26" d="M243.58,318.29H100.89a.72.72,0,0,1-.72-.72.73.73,0,0,1,.72-.73H243.58a.73.73,0,0,1,.73.73A.73.73,0,0,1,243.58,318.29Z"/><path class="cls-26" d="M243.58,321.75H100.89a.72.72,0,0,1,0-1.44H243.58a.72.72,0,1,1,0,1.44Z"/><path class="cls-26" d="M243.58,325.22H100.89a.73.73,0,0,1-.72-.73.72.72,0,0,1,.72-.72H243.58a.73.73,0,0,1,.73.72A.73.73,0,0,1,243.58,325.22Z"/><rect class="cls-27" x="25.34" y="379.66" width="241.6" height="45.64" rx="13.07"/><rect class="cls-28" x="52.64" y="384.91" width="28.38" height="35.15" rx="4.71"/><path class="cls-29" d="M261.37,337a57,57,0,0,0-4.09,20.29c0,10.88,4.09,21.49,4.09,21.49H81.22V336.26Z"/><path class="cls-30" d="M78,333.54H266.71c1.43,0,2.72.79,2.85,1.86.16,1.22-1.13,2.25-2.74,2.25h-175c-3.07,0-5.73,1.61-6.36,3.85-2.87,10.05-2.65,20.51,0,31.31.62,2.5,3.56,4.32,7,4.32H263.25c1.44,0,2.72.78,2.86,1.85.15,1.23-1.13,2.26-2.74,2.26H79.24c-4.41,0-8.2-2.35-9-5.58-3.18-13.1-3.46-25.67,0-37.56.78-2.67,4-4.56,7.63-4.56Z"/><path class="cls-31" d="M252.58,346.4H91A.72.72,0,1,1,91,345H252.58a.72.72,0,0,1,0,1.44Z"/><path class="cls-31" d="M252.58,350H91a.72.72,0,0,1-.72-.72.73.73,0,0,1,.72-.73H252.58a.73.73,0,0,1,.72.73A.72.72,0,0,1,252.58,350Z"/><path class="cls-31" d="M252.58,353.66H91a.72.72,0,0,1-.72-.72.73.73,0,0,1,.72-.73H252.58a.73.73,0,0,1,.72.73A.72.72,0,0,1,252.58,353.66Z"/><path class="cls-31" d="M252.58,357.29H91a.73.73,0,0,1-.72-.73.72.72,0,0,1,.72-.72H252.58a.72.72,0,0,1,.72.72A.73.73,0,0,1,252.58,357.29Z"/><path class="cls-31" d="M252.58,360.91H91a.72.72,0,0,1,0-1.44H252.58a.72.72,0,1,1,0,1.44Z"/><path class="cls-31" d="M252.58,364.54H91a.72.72,0,0,1-.72-.72.73.73,0,0,1,.72-.73H252.58a.73.73,0,0,1,.72.73A.72.72,0,0,1,252.58,364.54Z"/><path class="cls-31" d="M252.58,368.17H91a.72.72,0,0,1-.72-.72.73.73,0,0,1,.72-.73H252.58a.73.73,0,0,1,.72.73A.72.72,0,0,1,252.58,368.17Z"/><path class="cls-31" d="M252.58,371.8H91a.73.73,0,0,1-.72-.73.72.72,0,0,1,.72-.72H252.58a.72.72,0,0,1,.72.72A.73.73,0,0,1,252.58,371.8Z"/><path class="cls-29" d="M215.8,428.59H501V378.11H215.8C221.2,378.11,221.2,428.59,215.8,428.59Z"/><path class="cls-12" d="M501,416v-23.1c0-8.14-5-14.74-11.13-14.74h-273a8.75,8.75,0,0,1-8.75-8.75h0a2.66,2.66,0,0,1,2.66-2.66H506.12c6,0,15.57,9.45,15.57,21.12v32.26c0,11-9.28,19.92-15,19.92H212.15a4,4,0,0,1-4-4h0a7.37,7.37,0,0,1,7.37-7.37h276C496.78,428.59,501,422.93,501,416Z"/><path class="cls-31" d="M494.05,389.35H224.53a.88.88,0,1,1,0-1.76H494.05a.88.88,0,1,1,0,1.76Z"/><path class="cls-31" d="M494.05,396.84H224.53a.88.88,0,0,1,0-1.76H494.05a.88.88,0,0,1,0,1.76Z"/><path class="cls-31" d="M494.05,404.33H224.53a.88.88,0,0,1,0-1.76H494.05a.88.88,0,0,1,0,1.76Z"/><path class="cls-31" d="M494.05,411.82H224.53a.88.88,0,0,1,0-1.76H494.05a.88.88,0,0,1,0,1.76Z"/><path class="cls-31" d="M494.05,419.32H224.53a.88.88,0,0,1,0-1.76H494.05a.88.88,0,0,1,0,1.76Z"/><rect class="cls-32" x="240.71" y="311.69" width="259.98" height="54.78" rx="17.7" transform="translate(741.4 678.15) rotate(180)"/><rect class="cls-28" x="448.38" y="317.98" width="26.66" height="42.19" rx="6.38" transform="translate(923.42 678.15) rotate(180)"/><rect class="cls-28" x="434.46" y="317.98" width="10" height="42.19" rx="3.23" transform="translate(878.92 678.15) rotate(180)"/><path class="cls-33" d="M469,127.8,452.34,236.61H428.5l12.13-110S442.22,108,458.5,108C472.67,108,469,127.8,469,127.8Z"/><rect class="cls-34" x="381.36" y="258.72" width="61.1" height="5.89"/><rect class="cls-35" x="381.36" y="278.68" width="61.1" height="5.89"/><path class="cls-36" d="M447.07,240.29,442.7,311a.73.73,0,0,1-.79.71H439c-.44,0-1-.15-1-.65V240.29Z"/><path class="cls-37" d="M374.93,240.29,379.29,311a.74.74,0,0,0,.79.71H383c.44,0,.61-.15.61-.65V240.29Z"/><rect class="cls-38" x="357.8" y="224.83" width="105.27" height="19.88" rx="9.86"/><path class="cls-39" d="M330.52,311c8.55,0,12.34-.73,14-1.4a3.25,3.25,0,0,1-3.16,2.51H311.12a1.47,1.47,0,0,1-1.42-1.86C313.15,310.55,320.48,311,330.52,311Z"/><path class="cls-40" d="M309.7,310.27a1.42,1.42,0,0,1,.25-.51c2.3-2.94,6.94-7.57,13.24-7.48,9.23.13,12.44,1.13,19.62.06L344.5,308a3.28,3.28,0,0,1,.05,1.67c-1.69.67-5.48,1.4-14,1.4C320.48,311,313.15,310.55,309.7,310.27Z"/><path class="cls-41" d="M340.73,296.29l2.08,7.07s-4.6,2.09-8.65.41l-.8-6.12Z"/><path class="cls-42" d="M278,306.57c6.67,5.36,10.08,7.16,11.82,7.71a3.25,3.25,0,0,1-4,0l-23.6-19a1.47,1.47,0,0,1,.05-2.33C264.75,295.33,270.17,300.29,278,306.57Z"/><path class="cls-43" d="M262.23,293a1.48,1.48,0,0,1,.52-.25c3.63-.84,10.12-1.52,15,2.49,7.11,5.88,9,8.68,15.26,12.33L290.81,313a3.19,3.19,0,0,1-1,1.33c-1.74-.55-5.15-2.35-11.82-7.71C270.17,300.29,264.75,295.33,262.23,293Z"/><path class="cls-44" d="M385.16,215.81s-51.22,4.18-61.73,9.13S332,299.22,332,299.22s2.86,1.38,9.23-.6c0,0-6.53-51.17-1.67-62.26L395,227.28Z"/><path class="cls-45" d="M298.08,297.79c-.48.44-5.09,9.74-5.09,9.74s-5.14-1.11-6.19-4.36l4.63-8.4Z"/><path class="cls-46" d="M416,215.38a25.92,25.92,0,0,1,1.6,9.35,14.05,14.05,0,0,1-13.41,13.75l-60.55,2.76a2.9,2.9,0,0,0-2.68,2.18c-1.43,5.5-8.38,22.41-42.38,56.14a2.77,2.77,0,0,1-3.4.37l-4.84-3.06a1.12,1.12,0,0,1-.36-1.51l35.26-60.21a13.65,13.65,0,0,1,8.29-6.15l51.61-13.19Z"/><path class="cls-47" d="M416.18,215.2s.6-30-5.4-58.26a45.62,45.62,0,0,0-16.36-26.37l-2.8-2.21-14,5.71-7.21,12.46c-4,7.94-3,25.18,0,33.54,5,14,9,28.46,10.72,35.57C381.09,215.64,404.34,218.71,416.18,215.2Z"/><path class="cls-48" d="M382,106l11,25.43s-3.5,7.9-15.78,4.83l-4.39-17.55Z"/><path class="cls-49" d="M360.24,94.39c-.13.36-.42,25.42-.42,25.42l14.31-.14L377.94,96S362.45,88.45,360.24,94.39Z"/><path class="cls-50" d="M373.74,100.52l-1,12.64a1.52,1.52,0,0,1-.1.47c-.35.93-1.77,4.06-4.88,2.4-2.82-1.5-5.41-2.82-7.44-2.65a1.76,1.76,0,0,0-1.62,1.74,76.12,76.12,0,0,0,.72,11.86,1.76,1.76,0,0,0,1.87,1.48,57.46,57.46,0,0,0,13.1-2.32,1.79,1.79,0,0,0,1.18-1.38c.54-3.13,2.21-12.64,3.09-15.21.82-2.42,4.19-3.25,5.63-3.5a1.76,1.76,0,0,0,1.15-.74c.94-1.41,2.55-4.77-1.61-7.2a1.78,1.78,0,0,1-.61-2.48c1.06-1.7,1.95-4.46-1.18-6.76s-6.21-1-8,.19a1.76,1.76,0,0,1-2.26-.22,1.4,1.4,0,0,0-1.57-.28A1.74,1.74,0,0,1,368,87.31,5.28,5.28,0,0,0,362.6,83c-6.34-.28-8.5,6.35-7.74,10.67s7.64,4.22,11.37,2.93c2.83-1,5.74,1.32,7,2.48A1.76,1.76,0,0,1,373.74,100.52Z"/><path class="cls-51" d="M378.21,114.15s-1-7.59,2-8.75,6.59.55,4.65,5.47C382.4,117,378.21,114.15,378.21,114.15Z"/><path class="cls-47" d="M348.19,191.1c36.14,11.34,34.22-39.53,34.46-39.89,14.32-21.9,22.37,7.28,21,11.4-12.71,46-44.75,43.73-57.23,34.69A10,10,0,0,0,348.19,191.1Z"/><path class="cls-52" d="M375.9,183.25a.89.89,0,0,0,.5-.38c5.47-8.54,7-20.4,7.35-28.84a.92.92,0,0,0-1.84-.08c-.26,6.73-1.53,19.3-7.06,27.92a.92.92,0,0,0,.28,1.27A.88.88,0,0,0,375.9,183.25Z"/><path class="cls-53" d="M386,194.81a.93.93,0,0,0,.32-.18c8.26-6.92,14.48-17.8,18.5-32.33a.92.92,0,0,0-1.78-.49c-3.91,14.17-9.93,24.74-17.9,31.42a.92.92,0,0,0-.12,1.29A.93.93,0,0,0,386,194.81Z"/><path class="cls-54" d="M326.91,180.47s.59.94,4.82,4.22,8.49,5.17,5.26.66-1.66-6.83,2-2a34.16,34.16,0,0,0,6.33,6.73c1,.37,1.92.7,2.84,1a10,10,0,0,1-1.79,6.2c-1.47-.48-2.29-.84-2.29-.84s-11.2-2-13.59-6.8A55.65,55.65,0,0,1,326.91,180.47Z"/><path class="cls-55" d="M851.33,177.39a1.92,1.92,0,0,0-3.72-.12c-5.24,18.56-20.51,66.82-43.93,92.4C765.55,311.32,740.11,379,764.44,414.14,764.44,414.14,896.79,390,851.33,177.39Z"/><path class="cls-9" d="M846.89,203.87s0,.2-.08.58-.16.92-.29,1.65c-.27,1.46-.72,3.61-1.28,6.35s-1.28,6.05-2.16,9.84-1.91,8.06-3,12.71-2.44,9.67-3.89,15-3.06,10.85-4.74,16.59-3.53,11.64-5.51,17.6c-.5,1.49-1,3-1.49,4.49s-1,3-1.55,4.49c-1,3-2.14,6-3.22,9s-2.27,6-3.37,8.94l-3.49,8.81c-1.21,2.89-2.37,5.78-3.61,8.6s-2.42,5.61-3.71,8.31c-2.5,5.43-5,10.61-7.53,15.49s-5,9.41-7.37,13.56L787,371.73c-1.14,1.85-2.26,3.58-3.3,5.23l-1.51,2.38c-.51.74-1,1.46-1.48,2.16l-2.62,3.81c-1.62,2.26-3,4-3.83,5.22l-1.36,1.84h0a.41.41,0,0,0,.08.56.4.4,0,0,0,.54-.07l1.45-1.8c.93-1.18,2.35-2.86,4-5.1l2.75-3.74,1.56-2.13,1.59-2.34c1.09-1.63,2.29-3.33,3.48-5.17l3.65-5.86c2.46-4.13,5.08-8.63,7.67-13.5s5.21-10.06,7.75-15.5c1.31-2.7,2.5-5.52,3.79-8.33s2.44-5.72,3.68-8.62l3.56-8.84c1.13-3,2.28-6,3.36-9s2.17-6,3.18-9.06c.52-1.51,1-3,1.54-4.52l1.47-4.51c1.95-6,3.74-11.94,5.43-17.7s3.16-11.37,4.51-16.71,2.56-10.39,3.66-15.06c2.13-9.36,3.64-17.22,4.64-22.73.49-2.76.84-4.93,1.06-6.42.11-.76.2-1.34.25-1.73l.06-.59a.39.39,0,0,0-.35-.43.4.4,0,0,0-.43.34Z"/><path class="cls-56" d="M763.36,414s6-20.23,30.46-30.9c22.69-9.9,77.7-31.47,94.33-50.79.73-.86,2.12.25,1.8,1.45-3.39,12.83-14.18,43.76-43,64.83C809.7,425.71,763.36,414,763.36,414Z"/><path class="cls-9" d="M875,351.45s-.21.45-.67,1.24-1.16,1.93-2.13,3.33c-.47.7-1,1.46-1.66,2.27s-1.31,1.68-2.06,2.59-1.62,1.82-2.48,2.83-1.89,1.94-2.89,3l-3.33,3.06c-1.21,1-2.42,2.06-3.73,3.07l-2,1.5c-.69.5-1.34,1.06-2.08,1.52-1.46.94-2.9,2-4.46,2.91s-3.13,1.86-4.76,2.74-3.32,1.73-5,2.56l-5.24,2.31c-1.76.74-3.61,1.46-5.41,2.19-3.63,1.44-7.26,2.8-10.85,4.15s-7.15,2.61-10.61,3.82l-10,3.5c-3.17,1.11-6.17,2.2-8.92,3.25s-5.24,2.12-7.43,3.12c-1.1.5-2.09,1-3,1.5s-1.74,1-2.5,1.42a30.65,30.65,0,0,0-3.28,2.34l-1.11.91a.38.38,0,0,0,0,.55.39.39,0,0,0,.52.08l0,0,1.15-.79a35.18,35.18,0,0,1,3.36-2c.76-.37,1.59-.8,2.51-1.23s1.94-.85,3-1.27c2.2-.86,4.72-1.73,7.5-2.64s5.8-1.85,9-2.86l10.08-3.21c3.48-1.16,7.08-2.38,10.72-3.67s7.31-2.71,11-4.14c1.82-.73,3.62-1.43,5.45-2.19l5.36-2.45c1.74-.88,3.44-1.82,5.13-2.71s3.25-2,4.84-3,3-2.12,4.48-3.14,2.77-2.21,4.1-3.27,2.48-2.27,3.67-3.34,2.19-2.26,3.21-3.34,1.91-2.19,2.75-3.25,1.63-2.07,2.3-3.07a53,53,0,0,0,3.32-5.27,35.49,35.49,0,0,0,1.77-3.58c.36-.84.52-1.31.52-1.31a0,0,0,0,0,0-.06A0,0,0,0,0,875,351.45Z"/><path class="cls-26" d="M194.32,387.61a1.46,1.46,0,0,1,0-2.91l1.88,0a1.46,1.46,0,1,1,.05,2.91l-1.92,0Zm-4.44,0h0l-1.92,0a1.46,1.46,0,0,1-1.42-1.5,1.44,1.44,0,0,1,1.5-1.41l1.88,0a1.45,1.45,0,0,1,1.44,1.47A1.47,1.47,0,0,1,189.88,387.59Zm10.79-.12a1.46,1.46,0,0,1-.06-2.91l1.89-.08a1.46,1.46,0,1,1,.14,2.91l-1.91.08Zm-17.13-.09h-.07l-1.92-.11a1.45,1.45,0,1,1,.17-2.9l1.89.1a1.46,1.46,0,0,1-.07,2.91Zm23.47-.25a1.46,1.46,0,0,1-.1-2.91l1.89-.14A1.46,1.46,0,0,1,209,387l-1.91.14Zm-29.8-.17h-.13l-1.91-.17a1.46,1.46,0,1,1,.28-2.9l1.88.16a1.46,1.46,0,0,1-.12,2.91Zm36.12-.36a1.45,1.45,0,0,1-.14-2.9l1.88-.2a1.46,1.46,0,1,1,.32,2.9l-1.91.19Zm-42.44-.28h-.17l-1.91-.23a1.46,1.46,0,0,1,.38-2.89l1.87.23a1.45,1.45,0,0,1-.17,2.9Zm48.75-.44a1.46,1.46,0,0,1-.18-2.9l1.87-.25a1.46,1.46,0,0,1,.4,2.89l-1.9.25Zm-55-.42h-.22l-1.9-.31a1.45,1.45,0,0,1,.48-2.87l1.86.3a1.45,1.45,0,0,1-.22,2.89Zm61.32-.48a1.46,1.46,0,0,1-.22-2.9l1.87-.3a1.45,1.45,0,0,1,.48,2.87l-1.89.31Zm-67.57-.6-.27,0-1.89-.38a1.46,1.46,0,0,1,.59-2.85l1.85.37a1.46,1.46,0,0,1-.28,2.89Zm73.83-.49a1.46,1.46,0,0,1-.27-2.89l1.86-.35a1.45,1.45,0,1,1,.56,2.85l-1.88.37Zm-80-.84a1.32,1.32,0,0,1-.34,0l-1.86-.44a1.47,1.47,0,0,1-1.07-1.77,1.45,1.45,0,0,1,1.76-1.06l1.84.44a1.45,1.45,0,0,1-.33,2.87Zm86.25-.42a1.46,1.46,0,0,1-.31-2.88l1.85-.41a1.44,1.44,0,0,1,1.74,1.09,1.46,1.46,0,0,1-1.09,1.75l-1.88.41A1.06,1.06,0,0,1,238.4,382.63ZM146,381.49a1.31,1.31,0,0,1-.38-.06l-1.85-.52a1.45,1.45,0,0,1-1-1.8,1.47,1.47,0,0,1,1.81-1l1.81.52a1.45,1.45,0,0,1,1,1.79A1.47,1.47,0,0,1,146,381.49Zm98.6-.3a1.46,1.46,0,0,1-.35-2.87l1.43-.36.4-.11a1.46,1.46,0,0,1,.73,2.82l-.41.11-1.45.36A1.48,1.48,0,0,1,244.59,381.19Zm-104.68-1.51a1.68,1.68,0,0,1-.44-.07l-1.83-.6a1.46,1.46,0,0,1-.92-1.84,1.44,1.44,0,0,1,1.84-.92l1.8.58a1.46,1.46,0,0,1-.45,2.85Zm110.82-.1a1.46,1.46,0,0,1-.39-2.86l1.83-.51A1.45,1.45,0,1,1,253,379l-1.84.52A1.74,1.74,0,0,1,250.73,379.58Zm6.1-1.76a1.46,1.46,0,0,1-.42-2.85l1.81-.56a1.46,1.46,0,1,1,.87,2.78l-1.84.56A1.23,1.23,0,0,1,256.83,377.82Zm-122.92-.2a1.43,1.43,0,0,1-.5-.09l-1.81-.68a1.46,1.46,0,0,1,1-2.72l1.77.66a1.46,1.46,0,0,1-.5,2.83Zm129-1.71a1.46,1.46,0,0,1-.45-2.84l1.8-.6a1.46,1.46,0,0,1,.92,2.77l-1.82.6A1.41,1.41,0,0,1,262.89,375.91ZM128,375.3a1.36,1.36,0,0,1-.56-.11l-1.77-.75a1.46,1.46,0,0,1-.76-1.92,1.44,1.44,0,0,1,1.91-.75l1.74.73a1.46,1.46,0,0,1,.78,1.91A1.44,1.44,0,0,1,128,375.3Zm140.9-1.43a1.46,1.46,0,0,1-.48-2.83l1.78-.64a1.46,1.46,0,0,1,1,2.74l-1.8.64A1.46,1.46,0,0,1,268.9,373.87Zm-146.71-1.14a1.5,1.5,0,0,1-.62-.13c-.58-.28-1.16-.55-1.73-.84a1.46,1.46,0,1,1,1.27-2.62l1.7.82a1.45,1.45,0,0,1-.62,2.77Zm152.67-1a1.46,1.46,0,0,1-.51-2.82l1.77-.67a1.45,1.45,0,1,1,1.05,2.71l-1.79.69A1.58,1.58,0,0,1,274.86,371.69ZM116.51,369.9a1.51,1.51,0,0,1-.68-.16c-.57-.3-1.14-.6-1.7-.91a1.46,1.46,0,0,1,1.39-2.56l1.67.89a1.45,1.45,0,0,1-.68,2.74Zm164.27-.51a1.46,1.46,0,0,1-.54-2.81l1.75-.71a1.46,1.46,0,0,1,1.1,2.7l-1.77.71A1.49,1.49,0,0,1,280.78,369.39Zm5.87-2.42a1.46,1.46,0,0,1-.57-2.8l1.74-.74a1.44,1.44,0,0,1,1.91.76,1.45,1.45,0,0,1-.76,1.91l-1.76.75A1.38,1.38,0,0,1,286.65,367ZM111,366.82a1.49,1.49,0,0,1-.74-.2c-.55-.33-1.11-.65-1.65-1a1.45,1.45,0,1,1,1.5-2.49l1.62,1a1.45,1.45,0,0,1-.73,2.71Zm181.51-2.39a1.45,1.45,0,0,1-.6-2.78l1.73-.78a1.45,1.45,0,1,1,1.2,2.65l-1.74.79A1.56,1.56,0,0,1,292.47,364.43Zm-186.92-.95a1.43,1.43,0,0,1-.79-.24l-1.61-1.07a1.46,1.46,0,0,1,1.64-2.41l1.56,1a1.46,1.46,0,0,1-.8,2.68Zm192.69-1.68a1.46,1.46,0,0,1-.62-2.78l1.72-.81a1.45,1.45,0,1,1,1.24,2.63l-1.73.82A1.5,1.5,0,0,1,298.24,361.8Zm-197.9-1.95a1.45,1.45,0,0,1-.86-.28l-1.55-1.16a1.46,1.46,0,0,1,1.76-2.32l1.51,1.13a1.46,1.46,0,0,1,.31,2A1.43,1.43,0,0,1,100.34,359.85ZM304,359.06a1.46,1.46,0,0,1-.64-2.77l1.7-.83a1.46,1.46,0,0,1,1.3,2.61l-1.72.84A1.46,1.46,0,0,1,304,359.06Zm5.68-2.83a1.46,1.46,0,0,1-.66-2.76c.57-.28,1.13-.57,1.69-.86A1.46,1.46,0,0,1,312,355.2l-1.7.87A1.43,1.43,0,0,1,309.64,356.23ZM95.32,356a1.41,1.41,0,0,1-.92-.33c-.5-.4-1-.81-1.48-1.23a1.45,1.45,0,0,1,1.88-2.22l1.45,1.2a1.46,1.46,0,0,1-.93,2.58Zm220-2.64a1.44,1.44,0,0,1-1.29-.78,1.46,1.46,0,0,1,.61-2l1.67-.88a1.46,1.46,0,1,1,1.37,2.57l-1.68.89A1.52,1.52,0,0,1,315.28,353.31ZM90.52,351.8a1.43,1.43,0,0,1-1-.38c-.48-.43-1-.87-1.42-1.31a1.46,1.46,0,1,1,2-2.12l1.38,1.28a1.47,1.47,0,0,1,.1,2.06A1.49,1.49,0,0,1,90.52,351.8Zm230.35-1.49a1.45,1.45,0,0,1-.7-2.73l1.67-.92a1.45,1.45,0,1,1,1.4,2.55l-1.67.92A1.46,1.46,0,0,1,320.87,350.31Zm-234.93-2.9a1.49,1.49,0,0,1-1-.43l-1.34-1.38a1.45,1.45,0,1,1,2.09-2L87,344.93A1.45,1.45,0,0,1,87,347,1.44,1.44,0,0,1,85.94,347.41Zm240.48-.18a1.45,1.45,0,0,1-.71-2.72l1.65-.93a1.46,1.46,0,1,1,1.44,2.53l-1.66.94A1.54,1.54,0,0,1,326.42,347.23Zm5.52-3.14a1.46,1.46,0,0,1-.73-2.72l1.64-.95a1.46,1.46,0,0,1,1.47,2.52c-.55.32-1.1.64-1.66.95A1.38,1.38,0,0,1,331.94,344.09Zm-250.36-1.3a1.44,1.44,0,0,1-1.08-.49l-1.28-1.44a1.46,1.46,0,1,1,2.2-1.91l1.24,1.41a1.46,1.46,0,0,1-.11,2.06A1.49,1.49,0,0,1,81.58,342.79Zm255.83-1.91a1.45,1.45,0,0,1-1.25-.71,1.46,1.46,0,0,1,.51-2l1.63-1a1.46,1.46,0,0,1,1.5,2.5l-1.65,1A1.4,1.4,0,0,1,337.41,340.88ZM77.46,338a1.44,1.44,0,0,1-1.13-.54l-1.2-1.5a1.46,1.46,0,1,1,2.29-1.8l1.17,1.47a1.46,1.46,0,0,1-.21,2.05A1.43,1.43,0,0,1,77.46,338Zm265.4-.34a1.43,1.43,0,0,1-1.25-.7,1.45,1.45,0,0,1,.49-2l1.62-1a1.46,1.46,0,0,1,1.52,2.49l-1.63,1A1.38,1.38,0,0,1,342.86,337.61Zm5.41-3.32a1.45,1.45,0,0,1-.77-2.69l1.61-1a1.46,1.46,0,1,1,1.54,2.47l-1.62,1A1.42,1.42,0,0,1,348.27,334.29ZM73.59,332.92a1.42,1.42,0,0,1-1.17-.6c-.38-.51-.76-1-1.13-1.56a1.46,1.46,0,1,1,2.38-1.68l1.1,1.53a1.46,1.46,0,0,1-1.18,2.31Zm280.06-2a1.46,1.46,0,0,1-.78-2.69l1.6-1a1.45,1.45,0,1,1,1.57,2.45l-1.62,1A1.46,1.46,0,0,1,353.65,330.92ZM70,327.7a1.47,1.47,0,0,1-1.22-.65c-.35-.54-.7-1.08-1-1.62a1.46,1.46,0,0,1,2.46-1.56l1,1.58A1.45,1.45,0,0,1,70,327.7Zm289-.19a1.46,1.46,0,0,1-.79-2.69l1.6-1a1.46,1.46,0,0,1,1.58,2.45l-1.6,1A1.46,1.46,0,0,1,359,327.51Zm5.33-3.46a1.45,1.45,0,0,1-.8-2.67l1.6-1.05a1.46,1.46,0,0,1,1.59,2.44l-1.59,1A1.49,1.49,0,0,1,364.33,324.05ZM66.64,322.31a1.46,1.46,0,0,1-1.26-.72l-1-1.67A1.46,1.46,0,0,1,67,318.49c.31.55.62,1.09.94,1.63a1.46,1.46,0,0,1-.52,2A1.45,1.45,0,0,1,66.64,322.31Zm303-1.75a1.46,1.46,0,0,1-.81-2.67l1.59-1.05a1.46,1.46,0,1,1,1.61,2.43l-1.59,1.05A1.49,1.49,0,0,1,369.64,320.56Zm5.28-3.51a1.46,1.46,0,0,1-.81-2.67l1.58-1.06a1.46,1.46,0,0,1,1.63,2.42l-1.59,1.06A1.43,1.43,0,0,1,374.92,317.05Zm-311.34-.29a1.47,1.47,0,0,1-1.3-.79l-.87-1.72A1.46,1.46,0,0,1,64,313c.28.56.56,1.12.85,1.68a1.46,1.46,0,0,1-.62,2A1.51,1.51,0,0,1,63.58,316.76Zm316.61-3.25a1.5,1.5,0,0,1-1.21-.64,1.46,1.46,0,0,1,.4-2l1.57-1.06a1.45,1.45,0,1,1,1.63,2.41L381,313.26A1.46,1.46,0,0,1,380.19,313.51ZM60.81,311.05a1.45,1.45,0,0,1-1.33-.86c-.26-.58-.53-1.17-.78-1.76a1.46,1.46,0,0,1,2.67-1.16c.25.58.5,1.15.76,1.72a1.45,1.45,0,0,1-1.32,2.06ZM385.45,310a1.48,1.48,0,0,1-1.21-.64,1.46,1.46,0,0,1,.39-2l1.57-1.07a1.46,1.46,0,1,1,1.64,2.41l-1.57,1.07A1.46,1.46,0,0,1,385.45,310Zm5.25-3.57a1.47,1.47,0,0,1-1.21-.64,1.45,1.45,0,0,1,.39-2l1.57-1.08a1.46,1.46,0,0,1,1.64,2.41l-1.57,1.07A1.47,1.47,0,0,1,390.7,306.38ZM58.34,305.21a1.46,1.46,0,0,1-1.35-.93q-.36-.9-.69-1.8a1.46,1.46,0,0,1,2.73-1c.22.59.44,1.18.67,1.76a1.47,1.47,0,0,1-.83,1.89A1.61,1.61,0,0,1,58.34,305.21Zm337.6-2.41a1.46,1.46,0,0,1-.82-2.66l1.57-1.08a1.46,1.46,0,0,1,1.64,2.41l-1.57,1.07A1.47,1.47,0,0,1,395.94,302.8ZM56.2,299.24a1.47,1.47,0,0,1-1.39-1c-.2-.61-.39-1.22-.58-1.83a1.45,1.45,0,1,1,2.78-.86l.57,1.79a1.45,1.45,0,0,1-.93,1.83A1.42,1.42,0,0,1,56.2,299.24Zm345,0a1.46,1.46,0,0,1-.82-2.66l1.57-1.07a1.45,1.45,0,1,1,1.64,2.4L402,299A1.46,1.46,0,0,1,401.18,299.21Zm5.24-3.58a1.43,1.43,0,0,1-1.2-.64,1.44,1.44,0,0,1,.38-2l1.57-1.08a1.46,1.46,0,0,1,1.64,2.41l-1.57,1.07A1.4,1.4,0,0,1,406.42,295.63Zm-352-2.47A1.47,1.47,0,0,1,53,292.08l-.48-1.87a1.46,1.46,0,0,1,2.83-.7c.15.61.31,1.21.47,1.82a1.46,1.46,0,0,1-1,1.78A1.73,1.73,0,0,1,54.39,293.16Zm357.27-1.11a1.44,1.44,0,0,1-1.2-.64,1.46,1.46,0,0,1,.38-2l1.58-1.07a1.46,1.46,0,0,1,1.64,2.41l-1.58,1.07A1.44,1.44,0,0,1,411.66,292.05Zm5.26-3.57a1.45,1.45,0,0,1-.82-2.66l1.58-1.07a1.45,1.45,0,1,1,1.63,2.41l-1.58,1.07A1.43,1.43,0,0,1,416.92,288.48ZM52.93,287a1.46,1.46,0,0,1-1.42-1.17c-.13-.63-.25-1.26-.37-1.89A1.45,1.45,0,1,1,54,283.4l.36,1.84A1.46,1.46,0,0,1,53.23,287,1.53,1.53,0,0,1,52.93,287Zm369.25-2.06a1.45,1.45,0,0,1-.82-2.66L423,281.2a1.46,1.46,0,0,1,1.62,2.42L423,284.68A1.43,1.43,0,0,1,422.18,284.93Zm5.27-3.53a1.46,1.46,0,0,1-.8-2.67l1.58-1.06a1.46,1.46,0,0,1,1.62,2.43l-1.59,1A1.43,1.43,0,0,1,427.45,281.4Zm-375.6-.66a1.45,1.45,0,0,1-1.44-1.25c-.1-.64-.18-1.28-.26-1.91a1.46,1.46,0,1,1,2.89-.36c.08.62.16,1.24.25,1.86a1.45,1.45,0,0,1-1.24,1.64Zm380.9-2.85a1.45,1.45,0,0,1-.8-2.67l1.59-1.05a1.46,1.46,0,0,1,1.6,2.44l-1.59,1A1.49,1.49,0,0,1,432.75,277.89ZM51.14,274.43a1.45,1.45,0,0,1-1.45-1.34c0-.64-.09-1.28-.13-1.92a1.45,1.45,0,0,1,2.9-.18c0,.62.09,1.25.14,1.87a1.46,1.46,0,0,1-1.34,1.57Zm386.92,0a1.45,1.45,0,0,1-.79-2.67l1.6-1a1.46,1.46,0,0,1,1.58,2.45l-1.6,1A1.42,1.42,0,0,1,438.06,274.41ZM443.4,271a1.45,1.45,0,0,1-.79-2.68l1.61-1a1.46,1.46,0,1,1,1.56,2.46l-1.6,1A1.39,1.39,0,0,1,443.4,271ZM50.84,268.1a1.46,1.46,0,0,1-1.45-1.44c0-.5,0-1,0-1.49v-.44a1.45,1.45,0,0,1,1.45-1.45h0a1.46,1.46,0,0,1,1.45,1.46v.43c0,.48,0,1,0,1.45a1.47,1.47,0,0,1-1.44,1.48Zm397.92-.53a1.46,1.46,0,0,1-.78-2.69l1.62-1a1.46,1.46,0,1,1,1.54,2.47l-1.61,1A1.46,1.46,0,0,1,448.76,267.57Zm5.39-3.35a1.46,1.46,0,0,1-.77-2.7l1.63-1a1.46,1.46,0,0,1,1.52,2.49l-1.62,1A1.42,1.42,0,0,1,454.15,264.22ZM51,261.75h-.08a1.46,1.46,0,0,1-1.38-1.53c0-.64.07-1.29.12-1.93a1.46,1.46,0,1,1,2.91.21c-.05.62-.09,1.24-.12,1.87A1.45,1.45,0,0,1,51,261.75Zm550.75-.65a1.45,1.45,0,0,1-1.42-1.14c0-.22-.1-.44-.16-.66a1.46,1.46,0,1,1,2.83-.69c.06.24.12.48.17.72a1.46,1.46,0,0,1-1.1,1.74Zm-142.14-.19a1.45,1.45,0,0,1-.75-2.7l1.63-1a1.46,1.46,0,0,1,1.5,2.5l-1.63,1A1.35,1.35,0,0,1,459.57,260.91Zm5.46-3.24a1.46,1.46,0,0,1-.74-2.72l1.65-1a1.46,1.46,0,0,1,1.46,2.52c-.55.31-1.09.63-1.64,1A1.49,1.49,0,0,1,465,257.67Zm135.21-1.5a1.45,1.45,0,0,1-1.36-.94c-.21-.57-.44-1.14-.69-1.7a1.46,1.46,0,0,1,2.68-1.16c.26.61.51,1.22.74,1.83a1.46,1.46,0,0,1-.86,1.88A1.52,1.52,0,0,1,600.24,256.17ZM51.5,255.43h-.18a1.45,1.45,0,0,1-1.27-1.62c.08-.64.16-1.28.25-1.92a1.45,1.45,0,1,1,2.88.41l-.24,1.85A1.46,1.46,0,0,1,51.5,255.43Zm419-1a1.46,1.46,0,0,1-.73-2.72l1.66-.95a1.46,1.46,0,1,1,1.44,2.54l-1.65.94A1.46,1.46,0,0,1,470.52,254.48Zm5.53-3.12a1.46,1.46,0,0,1-.71-2.73l1.67-.92a1.46,1.46,0,0,1,1.41,2.55l-1.67.92A1.46,1.46,0,0,1,476.05,251.36Zm121.48-.91a1.45,1.45,0,0,1-1.26-.73c-.3-.53-.62-1.05-.95-1.57a1.45,1.45,0,1,1,2.45-1.57c.35.55.7,1.12,1,1.68a1.45,1.45,0,0,1-.53,2A1.39,1.39,0,0,1,597.53,250.45Zm-545.06-1.3a1.23,1.23,0,0,1-.27,0A1.46,1.46,0,0,1,51,247.42c.12-.63.25-1.26.38-1.89a1.46,1.46,0,1,1,2.85.61c-.13.61-.25,1.22-.37,1.83A1.45,1.45,0,0,1,52.47,249.15Zm429.15-.83a1.46,1.46,0,0,1-.7-2.74l1.69-.9a1.46,1.46,0,1,1,1.37,2.57l-1.68.89A1.41,1.41,0,0,1,481.62,248.32Zm5.61-3a1.46,1.46,0,0,1-.68-2.75l1.7-.87a1.46,1.46,0,1,1,1.33,2.59l-1.68.87A1.5,1.5,0,0,1,487.23,245.35ZM594,245.22a1.45,1.45,0,0,1-1.14-.54c-.39-.48-.78-1-1.19-1.41a1.46,1.46,0,1,1,2.19-1.92c.44.49.86,1,1.27,1.5a1.47,1.47,0,0,1-.22,2.05A1.43,1.43,0,0,1,594,245.22ZM53.88,243a1.57,1.57,0,0,1-.37-.05,1.47,1.47,0,0,1-1-1.78c.11-.38.21-.76.31-1.14l.21-.73a1.46,1.46,0,1,1,2.8.81l-.2.7-.3,1.1A1.45,1.45,0,0,1,53.88,243Zm439-.5a1.46,1.46,0,0,1-.65-2.76l1.71-.85a1.46,1.46,0,0,1,1.29,2.61l-1.7.84A1.39,1.39,0,0,1,492.88,242.47Zm96.75-1.9a1.43,1.43,0,0,1-1-.4c-.45-.42-.9-.83-1.37-1.24a1.46,1.46,0,0,1,1.91-2.2c.49.43,1,.87,1.46,1.32a1.46,1.46,0,0,1-1,2.52Zm-91.05-.89a1.46,1.46,0,0,1-.62-2.77l1.73-.82a1.46,1.46,0,0,1,1.23,2.64l-1.71.81A1.56,1.56,0,0,1,498.58,239.68Zm5.77-2.66a1.46,1.46,0,0,1-.6-2.79l1.76-.77a1.46,1.46,0,0,1,1.16,2.67l-1.73.76A1.4,1.4,0,0,1,504.35,237Zm-448.62-.13a1.59,1.59,0,0,1-.48-.07,1.45,1.45,0,0,1-.9-1.85c.21-.61.42-1.22.64-1.83a1.46,1.46,0,0,1,2.74,1c-.22.59-.42,1.18-.63,1.77A1.45,1.45,0,0,1,55.73,236.89Zm529-.37a1.5,1.5,0,0,1-.85-.27c-.5-.37-1-.72-1.52-1.07a1.45,1.45,0,1,1,1.62-2.41c.55.36,1.08.74,1.61,1.12a1.44,1.44,0,0,1,.32,2A1.43,1.43,0,0,1,584.73,236.52Zm-74.55-2a1.46,1.46,0,0,1-.55-2.81l1.78-.71a1.45,1.45,0,0,1,1.08,2.7l-1.76.71A1.5,1.5,0,0,1,510.18,234.52Zm69.2-1.42a1.43,1.43,0,0,1-.71-.19L577,232a1.45,1.45,0,1,1,1.34-2.58c.58.3,1.15.61,1.72.93a1.46,1.46,0,0,1,.56,2A1.48,1.48,0,0,1,579.38,233.1Zm-63.28-.87a1.46,1.46,0,0,1-.49-2.83l1.81-.64a1.44,1.44,0,0,1,1.85.89,1.46,1.46,0,0,1-.89,1.86l-1.78.63A1.43,1.43,0,0,1,516.1,232.23ZM58,231a1.41,1.41,0,0,1-.56-.12,1.46,1.46,0,0,1-.78-1.91c.25-.59.51-1.18.77-1.77a1.47,1.47,0,0,1,1.92-.74,1.45,1.45,0,0,1,.74,1.92c-.25.57-.5,1.15-.74,1.72A1.47,1.47,0,0,1,58,231Zm515.71-.67a1.41,1.41,0,0,1-.57-.11c-.57-.25-1.15-.48-1.72-.7a1.46,1.46,0,1,1,1.05-2.72c.6.24,1.21.48,1.81.74a1.45,1.45,0,0,1-.57,2.79Zm-51.57-.11a1.46,1.46,0,0,1-.44-2.85l1.85-.56a1.46,1.46,0,0,1,.82,2.8c-.6.17-1.2.36-1.8.54A1.29,1.29,0,0,1,522.12,230.19Zm6.1-1.73a1.46,1.46,0,0,1-.35-2.87l1.87-.46a1.45,1.45,0,0,1,.67,2.83l-1.83.45A1.49,1.49,0,0,1,528.22,228.46Zm39.5-.32a1.23,1.23,0,0,1-.42-.07c-.6-.18-1.19-.35-1.79-.51a1.46,1.46,0,1,1,.76-2.81c.63.17,1.25.35,1.87.54a1.45,1.45,0,0,1,1,1.81A1.46,1.46,0,0,1,567.72,228.14Zm-33.3-1.06a1.46,1.46,0,0,1-.27-2.89l1.91-.34a1.45,1.45,0,1,1,.48,2.87l-1.85.33Zm27.14-.46a1.24,1.24,0,0,1-.27,0c-.61-.11-1.22-.22-1.83-.31a1.46,1.46,0,1,1,.45-2.88l1.92.33a1.46,1.46,0,0,1-.27,2.89Zm-20.86-.5a1.46,1.46,0,0,1-.17-2.91l1.93-.2a1.46,1.46,0,0,1,.27,2.9c-.62.06-1.24.12-1.86.2Zm14.45-.34-1.85-.12a1.46,1.46,0,0,1,.14-2.91l1.9.12-.07,1.46Zm-8.13-.15a1.46,1.46,0,0,1,0-2.91c.65,0,1.29,0,1.94-.05h0a1.46,1.46,0,0,1,0,2.91c-.63,0-1.25,0-1.87,0ZM60.64,225.2a1.55,1.55,0,0,1-.66-.15,1.47,1.47,0,0,1-.64-2c.28-.57.58-1.15.88-1.72a1.46,1.46,0,1,1,2.58,1.36c-.29.55-.58,1.11-.86,1.67A1.46,1.46,0,0,1,60.64,225.2Zm3-5.58a1.39,1.39,0,0,1-.73-.2,1.44,1.44,0,0,1-.52-2c.32-.56.65-1.11,1-1.66a1.46,1.46,0,0,1,2.49,1.52c-.33.53-.65,1.07-1,1.61A1.46,1.46,0,0,1,63.66,219.62ZM67,214.25a1.43,1.43,0,0,1-.81-.25,1.46,1.46,0,0,1-.4-2c.36-.54.73-1.07,1.1-1.59a1.45,1.45,0,1,1,2.38,1.67c-.36.51-.71,1-1.06,1.55A1.47,1.47,0,0,1,67,214.25Zm3.71-5.16a1.43,1.43,0,0,1-.89-.3,1.46,1.46,0,0,1-.27-2c.4-.51.79-1,1.19-1.52A1.46,1.46,0,0,1,73.06,207c-.39.49-.77,1-1.15,1.48A1.44,1.44,0,0,1,70.75,209.09Zm4-4.91a1.47,1.47,0,0,1-1.1-2.42l1.28-1.44a1.46,1.46,0,0,1,2.17,1.94l-1.25,1.41A1.42,1.42,0,0,1,74.76,204.18Zm4.31-4.67a1.44,1.44,0,0,1-1-.42A1.45,1.45,0,0,1,78,197l1.37-1.37a1.45,1.45,0,1,1,2,2.07l-1.32,1.34A1.48,1.48,0,0,1,79.07,199.51Zm4.56-4.41a1.44,1.44,0,0,1-1.07-.48,1.47,1.47,0,0,1,.09-2.06l1.44-1.28A1.46,1.46,0,1,1,86,193.46l-1.4,1.26A1.5,1.5,0,0,1,83.63,195.1ZM88.45,191a1.46,1.46,0,0,1-.91-2.59l1.51-1.2a1.46,1.46,0,0,1,1.79,2.3c-.49.38-1,.77-1.47,1.17A1.45,1.45,0,0,1,88.45,191Zm5-3.85a1.46,1.46,0,0,1-.85-2.64c.52-.38,1-.75,1.58-1.11a1.45,1.45,0,0,1,1.65,2.39l-1.53,1.08A1.44,1.44,0,0,1,93.5,187.11Zm5.26-3.56a1.45,1.45,0,0,1-.78-2.68c.54-.35,1.09-.69,1.64-1a1.45,1.45,0,1,1,1.51,2.48l-1.59,1A1.46,1.46,0,0,1,98.76,183.55Zm5.45-3.24a1.46,1.46,0,0,1-.71-2.73l1.7-.92a1.46,1.46,0,0,1,1.37,2.57l-1.65.9A1.5,1.5,0,0,1,104.21,180.31Zm5.64-2.92a1.49,1.49,0,0,1-1.32-.83,1.46,1.46,0,0,1,.68-1.94l1.75-.83a1.46,1.46,0,0,1,1.22,2.65l-1.7.8A1.45,1.45,0,0,1,109.85,177.39Zm100.67-2.25a1.58,1.58,0,0,1-.52-.09l-1.77-.67a1.46,1.46,0,0,1,1-2.73l1.8.67a1.46,1.46,0,0,1-.52,2.82Zm-94.88-.34a1.46,1.46,0,0,1-.55-2.81l1.41-.57.38-.14a1.45,1.45,0,0,1,1.06,2.71l-.37.14-1.38.56A1.5,1.5,0,0,1,115.64,174.8Zm88.9-1.79a1.47,1.47,0,0,1-.46-.07l-1.79-.58a1.46,1.46,0,1,1,.88-2.78l1.83.59a1.46,1.46,0,0,1-.46,2.84Zm-83-.46a1.45,1.45,0,0,1-.48-2.83l1.83-.61a1.45,1.45,0,1,1,.91,2.76l-1.79.6A1.26,1.26,0,0,1,121.58,172.55Zm76.89-1.4a1.31,1.31,0,0,1-.39-.05l-1.82-.5a1.45,1.45,0,0,1,.75-2.81c.62.16,1.24.33,1.85.51a1.45,1.45,0,0,1-.39,2.85Zm-70.84-.5a1.46,1.46,0,0,1-.4-2.86l1.86-.52a1.46,1.46,0,0,1,.75,2.82l-1.81.5A1.39,1.39,0,0,1,127.63,170.65Zm64.69-1.07a1.86,1.86,0,0,1-.33,0c-.61-.15-1.22-.28-1.84-.42a1.45,1.45,0,1,1,.63-2.84c.62.13,1.25.27,1.87.42a1.45,1.45,0,0,1,1.09,1.75A1.47,1.47,0,0,1,192.32,169.58Zm-58.54-.51a1.46,1.46,0,0,1-.32-2.88l1.88-.41a1.46,1.46,0,1,1,.6,2.85l-1.84.4A1.17,1.17,0,0,1,133.78,169.07Zm52.33-.79a1.24,1.24,0,0,1-.27,0l-1.85-.32a1.46,1.46,0,0,1,.49-2.88l1.89.34a1.46,1.46,0,0,1-.26,2.89ZM140,167.83a1.46,1.46,0,0,1-.24-2.9l1.9-.31a1.46,1.46,0,0,1,.45,2.88l-1.86.3A1,1,0,0,1,140,167.83Zm39.84-.56-.2,0-1.87-.24a1.46,1.46,0,0,1,.36-2.89l1.91.25a1.46,1.46,0,0,1-.2,2.9Zm-33.56-.36a1.46,1.46,0,0,1-.17-2.91l1.92-.21a1.46,1.46,0,0,1,.3,2.9c-.62.06-1.25.13-1.87.21Zm27.26-.36h-.14c-.62,0-1.25-.11-1.88-.15a1.46,1.46,0,0,1,.23-2.91l1.91.16a1.46,1.46,0,0,1-.12,2.91Zm-20.94-.24a1.46,1.46,0,0,1-.1-2.91l1.93-.12a1.46,1.46,0,0,1,.15,2.91c-.62,0-1.25.07-1.87.12Zm14.6-.18h-.06l-1.89-.07a1.46,1.46,0,0,1,.09-2.91l1.92.07a1.46,1.46,0,0,1-.06,2.91ZM159,166a1.46,1.46,0,0,1,0-2.91l1.92,0h0a1.46,1.46,0,0,1,0,2.92L159,166Z"/><path class="cls-57" d="M188.11,84s2.15-8.1-9.3-9.45-14.63,18.36-5.56,21S188.11,84,188.11,84Z"/><path class="cls-58" d="M110.1,126.83a18.84,18.84,0,0,1,13.74-6.07l68.5-.49a18.91,18.91,0,0,1,18.79,22l-13.72,83.47H111.18L105.12,141A18.91,18.91,0,0,1,110.1,126.83Z"/><polygon class="cls-59" points="202.99 167.43 179.17 166.42 173.81 176.14 202.99 173.93 202.99 167.43"/><rect class="cls-60" x="126.43" y="258.1" width="61.1" height="5.89"/><path class="cls-61" d="M192.14,229.39l-4.36,70.69a.74.74,0,0,1-.79.71h-2.88c-.44,0-1-.15-1-.65V229.39Z"/><path class="cls-62" d="M120,229.39l4.37,70.69a.73.73,0,0,0,.79.71H128c.44,0,.6-.15.6-.65V229.39Z"/><rect class="cls-63" x="102.88" y="213.93" width="105.27" height="19.88" rx="9.86"/><path class="cls-64" d="M240.5,289.49c-.06-.06-9.41-89-11.95-98.06a4.65,4.65,0,0,0-3.13-3.19l-11.92-3.63-25.7,15.1,27.59,4.67c-8.86,14.21,9.71,49.27,15.86,61.79a2.45,2.45,0,0,1-1.26,3.34l-5.69,2.37a48.9,48.9,0,0,0,16.59,22.3Z"/><path class="cls-65" d="M227.52,270.67a6.29,6.29,0,0,0-4.66,1.55,2.77,2.77,0,0,0-.33,3.34c2.81,4.74,12.16,20.16,17.58,24.76a.78.78,0,0,0,1.25-.45c.32-1.59.55-4.94-.92-10.64l0,.74a1,1,0,0,1-1.7.62C235.63,286.4,229.4,277.51,227.52,270.67Z"/><path class="cls-66" d="M223,293.43c-.06-.06-2-17.3-2.11-17.36,4.34-37.37-1.23-72-3.15-81.28a4.67,4.67,0,0,0-2.9-3.4L203.23,187l-27.46,21.12,28-1.27c-9.81,13.57,6.33,49.82,11.62,62.72a2.46,2.46,0,0,1-1.49,3.26l-5.84,2a48.91,48.91,0,0,0,15,23.38Z"/><path class="cls-67" d="M211.36,273.77a6.27,6.27,0,0,0-4.75,1.24,2.76,2.76,0,0,0-.56,3.31c2.48,4.92,10.76,20.93,15.86,25.89a.77.77,0,0,0,1.27-.36c.43-1.56.89-4.89-.19-10.68l0,.74a1,1,0,0,1-1.74.5C218.39,290,212.77,280.73,211.36,273.77Z"/><path class="cls-68" d="M130,207.78c.92-7.62,12.15-24.32,12.15-24.32s43.56-1.42,48.65.55c3.95,1.53,20.06.67,27.07.2a.56.56,0,0,1,.26,1.06c-17.13,7.45-18.78,11.7-21,26.14,0,0-17.24,10.49-52.22,7.59C133.08,218,129.05,215.4,130,207.78Z"/><path class="cls-69" d="M172.49,181s13.08-12.45,19.52-20.7a17.5,17.5,0,0,0,3-15.75c-2.94-9.9-8.16-20.16-8.64-21.75-.73-2.45-15.39-2.35-15.39-2.35s-28.86,18.73-40.19,50.45l12.73,4s7.53-12.64,15-20.68c0,0-12.88,17-13.34,24Z"/><path class="cls-70" d="M188.11,109.1c-.16.51-4,13.2-4.28,13.46s-8.4.7-12.21-1.9l7.78-17.2Z"/><path class="cls-71" d="M198.63,94.85s2.73,6.29-.47,15.86-8.44,10.4-11.75,8-7.61-6.59-8.14-15.26S194.88,86.89,198.63,94.85Z"/><path class="cls-72" d="M184,84.22a14.88,14.88,0,0,1,9.39-1.75,15.27,15.27,0,0,1,6.3,2.41,14.53,14.53,0,0,1,4.52,4.75A9.46,9.46,0,0,1,205,92,10.68,10.68,0,0,1,202.7,101c-1.55,1.86-3.11,3.39-3.11,3.39l-.27-1.95a6.55,6.55,0,0,0-4.3-5.83,6.72,6.72,0,0,0-6.7,1.55,17.75,17.75,0,0,0-3.63,5.19l-.78-.23s.07-3.79-2.34-2.9-3.38,5.89-3.38,5.89-5.09,2.34-5.57-4.48S175.15,89.07,184,84.22Z"/><path class="cls-73" d="M182.74,103.08s3-6.64-1.2-6.88-2.5,6.4-1.66,8.83Z"/><path class="cls-74" d="M197.41,185.89l-9.83-10.69-11.34,3.06s-13.24,2.05-20.81,0l-7.57-2-17.11-5.33-2.69,7.6a4.56,4.56,0,0,0,1.67,5.25,30.3,30.3,0,0,0,4.32,2.69c2.26,1,51.92.32,51.92.32Z"/><path class="cls-75" d="M184.77,186l18.84-41.71a.93.93,0,0,1,1.12-.51l16.77,5a1,1,0,0,1,.56.48.91.91,0,0,1,0,.74l-14.28,38.54a.92.92,0,0,1-.95.6l-21.33-1.86a.94.94,0,0,1-.72-.46A1,1,0,0,1,184.77,186Z"/><path class="cls-76" d="M208.61,145.71l.52-1.18a.82.82,0,0,1,1-.44l2.48.89a.26.26,0,0,0,.3-.08l.44-.6a1.23,1.23,0,0,1,1.48-.4l2.22,1a1.16,1.16,0,0,1,.65,1.13v.72c0,.11.17.21.27.25l.8.23a.85.85,0,0,1,.52.43.84.84,0,0,1,0,.66l-.54,1.3a.81.81,0,0,1-1,.45l-8.69-3.27a.81.81,0,0,1-.46-1.09Z"/><path class="cls-77" d="M218.74,164.93s-3.59-4.88-3.73-3.4,0,4.64,0,4.64a9,9,0,0,0-1.7,2.81c-1,2.21-1.56,5.67-.46,6S219.15,168.47,218.74,164.93Z"/><path class="cls-78" d="M181.39,164.83a.56.56,0,0,1,.45-.22.87.87,0,0,1,.83.61l3.26,10.64-1.7.51-2.94-11.05A.57.57,0,0,1,181.39,164.83Z"/><path class="cls-26" d="M201.53,100.44a.16.16,0,0,0,.14-.07c.06-.07,5.68-7,0-12.27a.17.17,0,0,0-.25,0,.18.18,0,0,0,0,.26c5.44,5,0,11.7,0,11.77a.18.18,0,0,0,0,.26A.19.19,0,0,0,201.53,100.44Z"/></g></g></g></svg>