<?xml version="1.0" encoding="UTF-8" standalone="no" ?>
<!DOCTYPE svg PUBLIC "-//W3C//DTD SVG 1.1//EN" "http://www.w3.org/Graphics/SVG/1.1/DTD/svg11.dtd">
<svg xmlns="http://www.w3.org/2000/svg" xmlns:xlink="http://www.w3.org/1999/xlink" version="1.1" width="1080" height="1080" viewBox="0 0 1080 1080" xml:space="preserve">
<desc>Created with Fabric.js 4.2.0</desc>
<defs>
</defs>
<g transform="matrix(0 0 0 0 0 0)" id="5e819456-6337-416f-a90c-7d1bfbe10831"  >
</g>
<g transform="matrix(1 0 0 1 540 540)" id="d6f26c33-8afe-4f72-8dc2-0d841f2c5746"  >
<rect style="stroke: none; stroke-width: 1; stroke-dasharray: none; stroke-linecap: butt; stroke-dashoffset: 0; stroke-linejoin: miter; stroke-miterlimit: 4; fill: rgb(255,255,255); fill-rule: nonzero; opacity: 1;" vector-effect="non-scaling-stroke"  x="-540" y="-540" rx="0" ry="0" width="1080" height="1080" />
</g>
<g transform="matrix(1 0 0 1 538.5 594.17)" style="" id="a1d9c8fd-bf48-47f7-af47-32baf344c3cf"  >
		<text xml:space="preserve" font-family="Shadows Into Light" font-size="200" font-style="normal" font-weight="900" style="stroke: none; stroke-width: 1; stroke-dasharray: none; stroke-linecap: butt; stroke-dashoffset: 0; stroke-linejoin: miter; stroke-miterlimit: 4; fill: rgb(128,78,73); fill-rule: nonzero; opacity: 1; white-space: pre;" ><tspan x="-351.21" y="62.83" >C</tspan><tspan x="-240.75" y="62.83" >o</tspan><tspan x="-174.43" y="62.83" >a</tspan><tspan x="-88.18" y="62.83" >c</tspan><tspan x="2.94" y="62.83" >h</tspan><tspan x="109.3" y="62.83" >M</tspan><tspan x="258.82" y="62.83" >e</tspan></text>
</g>
<g transform="matrix(1 0 0 1 539.75 744.4)" style="" id="63b47cc0-1cd8-4c42-a1a5-80fd992c4324"  >
		<text xml:space="preserve" font-family="Shadows Into Light" font-size="68" font-style="normal" font-weight="700" style="stroke: none; stroke-width: 1; stroke-dasharray: none; stroke-linecap: butt; stroke-dashoffset: 0; stroke-linejoin: miter; stroke-miterlimit: 4; fill: rgb(128,78,73); fill-rule: nonzero; opacity: 1; white-space: pre;" ><tspan x="-385.5" y="21.36" >A</tspan><tspan x="-355.2" y="21.36" >n</tspan><tspan x="-318.59" y="21.36" style="white-space: pre; "> </tspan><tspan x="-284.23" y="21.36" >a</tspan><tspan x="-255.59" y="21.36" >p</tspan><tspan x="-219.05" y="21.36" >p</tspan><tspan x="-182.5" y="21.36" style="white-space: pre; "> </tspan><tspan x="-148.15" y="21.36" >f</tspan><tspan x="-120.9" y="21.36" >o</tspan><tspan x="-99.03" y="21.36" >r</tspan><tspan x="-68.33" y="21.36" style="white-space: pre; "> </tspan><tspan x="-33.98" y="21.36" >e</tspan><tspan x="1.17" y="21.36" >n</tspan><tspan x="37.78" y="21.36" >t</tspan><tspan x="59.79" y="21.36" >r</tspan><tspan x="90.49" y="21.36" >e</tspan><tspan x="125.64" y="21.36" >p</tspan><tspan x="162.18" y="21.36" >r</tspan><tspan x="192.88" y="21.36" >e</tspan><tspan x="228.03" y="21.36" >n</tspan><tspan x="264.64" y="21.36" >e</tspan><tspan x="299.79" y="21.36" >u</tspan><tspan x="329.9" y="21.36" >r</tspan><tspan x="360.6" y="21.36" >s</tspan></text>
</g>
</svg>